<svg xmlns="http://www.w3.org/2000/svg" width="400" height="820" viewBox="0 0 400 820">
  <defs>
    <linearGradient id="bg" x1="0" y1="0" x2="0" y2="1">
      <stop offset="0" stop-color="#2b1d12"/><stop offset="1" stop-color="#3d2a18"/>
    </linearGradient>
    <linearGradient id="ph1" x1="0" y1="0" x2="1" y2="1">
      <stop offset="0" stop-color="#5a3d24"/><stop offset="1" stop-color="#7a5230"/>
    </linearGradient>
    <linearGradient id="ph2" x1="0" y1="0" x2="1" y2="1">
      <stop offset="0" stop-color="#7a5230"/><stop offset="1" stop-color="#5a3d24"/>
    </linearGradient>
    <clipPath id="screen"><rect x="0" y="0" width="400" height="820" rx="40"/></clipPath>
  </defs>

  <g clip-path="url(#screen)">
    <rect x="0" y="0" width="400" height="820" fill="url(#bg)"/>

    <!-- notch -->
    <rect x="150" y="14" width="100" height="22" rx="11" fill="#2b1d12" opacity="0.5"/>

    <!-- header / brand -->
    <text x="200" y="78" font-family="'Georgia', serif" font-size="26" font-weight="800" fill="#e0852f" text-anchor="middle" letter-spacing="1">EL ROBLE</text>
    <text x="200" y="100" font-family="'Georgia', serif" font-size="12.5" fill="#c7a583" text-anchor="middle" letter-spacing="2">PARRILLA &amp; TRAGOS</text>
    <line x1="170" y1="112" x2="230" y2="112" stroke="#e0852f" stroke-width="2"/>

    
    <rect x="22" y="132" width="356" height="54" rx="16" fill="#3a2719" stroke="#5a3d24" stroke-width="1"/>
    <text x="40" y="164" font-family="'Georgia', serif" font-size="16" font-weight="600" fill="#f6e7d3">Entradas</text>
    <text x="332" y="164" font-family="'Georgia', serif" font-size="12" fill="#c7a583">6 ítems</text>
    <path d="M350 156 L356 162 L362 156" fill="none" stroke="#c7a583" stroke-width="2.2" stroke-linecap="round" stroke-linejoin="round"/>
  

      <rect x="22" y="198" width="356" height="264" rx="18" fill="#3a2719" stroke="#5a3d24" stroke-width="1"/>
      <rect x="22" y="198" width="356" height="50" rx="18" fill="#e0852f"/>
      <rect x="22" y="230" width="356" height="18" fill="#e0852f"/>
      <text x="40" y="228" font-family="'Georgia', serif" font-size="16" font-weight="700" fill="#2b1d12">Platos fuertes</text>
      <path d="M350 226 L356 220 L362 226" fill="none" stroke="#2b1d12" stroke-width="2.2" stroke-linecap="round" stroke-linejoin="round"/>
      
    <rect x="32" y="254" width="336" height="92" rx="14" fill="#5a3d24"/>
    <rect x="42" y="268" width="64" height="64" rx="12" fill="url(#ph1)"/>
    <text x="74" y="309" font-size="26" text-anchor="middle">🥩</text>
    <text x="120" y="282" font-family="'Georgia', serif" font-size="15" font-weight="700" fill="#f6e7d3">Bife de chorizo</text>
    <text x="120" y="302" font-family="'Georgia', serif" font-size="11.5" fill="#c7a583">300g, punto a elección</text>
    <text x="120" y="318" font-family="'Georgia', serif" font-size="11.5" fill="#c7a583">servido con guarnición</text>
    <rect x="304" y="316" width="56" height="22" rx="11" fill="#e0852f"/>
    <text x="332" y="331" font-family="'Georgia', serif" font-size="12.5" font-weight="700" fill="#2b1d12" text-anchor="middle">$18</text>
  
      
    <rect x="32" y="358" width="336" height="92" rx="14" fill="#5a3d24"/>
    <rect x="42" y="372" width="64" height="64" rx="12" fill="url(#ph2)"/>
    <text x="74" y="413" font-size="26" text-anchor="middle">🍝</text>
    <text x="120" y="386" font-family="'Georgia', serif" font-size="15" font-weight="700" fill="#f6e7d3">Pasta de la casa</text>
    <text x="120" y="406" font-family="'Georgia', serif" font-size="11.5" fill="#c7a583">salsa pomodoro y albahaca</text>
    <text x="120" y="422" font-family="'Georgia', serif" font-size="11.5" fill="#c7a583">servido con guarnición</text>
    <rect x="304" y="420" width="56" height="22" rx="11" fill="#e0852f"/>
    <text x="332" y="435" font-family="'Georgia', serif" font-size="12.5" font-weight="700" fill="#2b1d12" text-anchor="middle">$14</text>
  
    

    <rect x="22" y="474" width="356" height="54" rx="16" fill="#3a2719" stroke="#5a3d24" stroke-width="1"/>
    <text x="40" y="506" font-family="'Georgia', serif" font-size="16" font-weight="600" fill="#f6e7d3">Bebidas</text>
    <text x="332" y="506" font-family="'Georgia', serif" font-size="12" fill="#c7a583">12 ítems</text>
    <path d="M350 498 L356 504 L362 498" fill="none" stroke="#c7a583" stroke-width="2.2" stroke-linecap="round" stroke-linejoin="round"/>
  

    <rect x="22" y="540" width="356" height="54" rx="16" fill="#3a2719" stroke="#5a3d24" stroke-width="1"/>
    <text x="40" y="572" font-family="'Georgia', serif" font-size="16" font-weight="600" fill="#f6e7d3">Postres</text>
    <text x="332" y="572" font-family="'Georgia', serif" font-size="12" fill="#c7a583">4 ítems</text>
    <path d="M350 564 L356 570 L362 564" fill="none" stroke="#c7a583" stroke-width="2.2" stroke-linecap="round" stroke-linejoin="round"/>
  

    <!-- footer QR hint -->
    <rect x="22" y="746" width="356" height="50" rx="16" fill="#3a2719" stroke="#5a3d24" stroke-width="1"/>
    <rect x="34" y="754" width="34" height="34" rx="7" fill="#f6e7d3"/>
    <text x="80" y="774" font-family="'Georgia', serif" font-size="12.5" font-weight="700" fill="#f6e7d3">Menú digital · Madera / Rústico</text>
    <text x="80" y="789" font-family="'Georgia', serif" font-size="11" fill="#c7a583">escanea el QR para verlo en tu mesa</text>
  </g>
  <!-- marco -->
  <rect x="1" y="1" width="398" height="818" rx="39" fill="none" stroke="#000" stroke-width="2" opacity="0.25"/>
</svg>